<svg width="61" height="59" viewBox="0 0 61 59" fill="none" xmlns="http://www.w3.org/2000/svg">
<path d="M4.31099 0C2.71162 0 1.39415 1.3106 1.39415 2.90164V39.6557C1.39415 41.2468 2.71162 42.5574 4.31099 42.5574H25.7011V47.3934H18.8952C17.2958 47.3934 15.9783 48.704 15.9783 50.2951H9.17238C9.04354 50.2933 8.91562 50.3169 8.79607 50.3647C8.67651 50.4125 8.56769 50.4835 8.47593 50.5735C8.38418 50.6635 8.31132 50.7707 8.26159 50.889C8.21186 51.0072 8.18625 51.1341 8.18625 51.2623C8.18625 51.3905 8.21186 51.5174 8.26159 51.6356C8.31132 51.7539 8.38418 51.8611 8.47593 51.9511C8.56769 52.0411 8.67651 52.1121 8.79607 52.1598C8.91562 52.2076 9.04354 52.2313 9.17238 52.2295H17.9229V50.2951C17.9229 49.7486 18.3458 49.3279 18.8952 49.3279H27.6457V42.5574H33.4793V49.3279H42.2298C42.7792 49.3279 43.2021 49.7486 43.2021 50.2951V52.2295H51.9526C52.0815 52.2313 52.2094 52.2076 52.3289 52.1598C52.4485 52.1121 52.5573 52.0411 52.6491 51.9511C52.7408 51.8611 52.8137 51.7539 52.8634 51.6356C52.9131 51.5174 52.9387 51.3905 52.9387 51.2623C52.9387 51.1341 52.9131 51.0072 52.8634 50.889C52.8137 50.7707 52.7408 50.6635 52.6491 50.5735C52.5573 50.4835 52.4485 50.4125 52.3289 50.3647C52.2094 50.3169 52.0815 50.2933 51.9526 50.2951H45.1467C45.1467 48.704 43.8292 47.3934 42.2298 47.3934H35.4239V42.5574H56.814C58.4134 42.5574 59.7308 41.2468 59.7308 39.6557V2.90164C59.7308 1.3106 58.4134 0 56.814 0H4.31099ZM4.31099 1.93443H56.814C57.3634 1.93443 57.7863 2.35513 57.7863 2.90164V39.6557C57.7863 40.2022 57.3634 40.623 56.814 40.623H35.4239H25.7011H4.31099C3.76162 40.623 3.33871 40.2022 3.33871 39.6557V2.90164C3.33871 2.35513 3.76162 1.93443 4.31099 1.93443ZM7.22782 4.83607C6.96996 4.83607 6.72266 4.93797 6.54032 5.11936C6.35798 5.30074 6.25554 5.54676 6.25554 5.80328C6.25554 6.0598 6.35798 6.30581 6.54032 6.4872C6.72266 6.66859 6.96996 6.77049 7.22782 6.77049C7.48569 6.77049 7.73299 6.66859 7.91533 6.4872C8.09767 6.30581 8.2001 6.0598 8.2001 5.80328C8.2001 5.54676 8.09767 5.30074 7.91533 5.11936C7.73299 4.93797 7.48569 4.83607 7.22782 4.83607ZM11.1169 4.83607C10.8591 4.83607 10.6118 4.93797 10.4294 5.11936C10.2471 5.30074 10.1447 5.54676 10.1447 5.80328C10.1447 6.0598 10.2471 6.30581 10.4294 6.4872C10.6118 6.66859 10.8591 6.77049 11.1169 6.77049C11.3748 6.77049 11.6221 6.66859 11.8044 6.4872C11.9868 6.30581 12.0892 6.0598 12.0892 5.80328C12.0892 5.54676 11.9868 5.30074 11.8044 5.11936C11.6221 4.93797 11.3748 4.83607 11.1169 4.83607ZM15.006 4.83607C14.7482 4.83607 14.5009 4.93797 14.3185 5.11936C14.1362 5.30074 14.0338 5.54676 14.0338 5.80328C14.0338 6.0598 14.1362 6.30581 14.3185 6.4872C14.5009 6.66859 14.7482 6.77049 15.006 6.77049C15.2639 6.77049 15.5112 6.66859 15.6936 6.4872C15.8759 6.30581 15.9783 6.0598 15.9783 5.80328C15.9783 5.54676 15.8759 5.30074 15.6936 5.11936C15.5112 4.93797 15.2639 4.83607 15.006 4.83607ZM18.8952 4.83607C18.6373 4.83607 18.39 4.93797 18.2077 5.11936C18.0253 5.30074 17.9229 5.54676 17.9229 5.80328C17.9229 6.0598 18.0253 6.30581 18.2077 6.4872C18.39 6.66859 18.6373 6.77049 18.8952 6.77049C19.153 6.77049 19.4003 6.66859 19.5827 6.4872C19.765 6.30581 19.8674 6.0598 19.8674 5.80328C19.8674 5.54676 19.765 5.30074 19.5827 5.11936C19.4003 4.93797 19.153 4.83607 18.8952 4.83607ZM22.7843 4.83607C22.5264 4.83607 22.2791 4.93797 22.0968 5.11936C21.9144 5.30074 21.812 5.54676 21.812 5.80328C21.812 6.0598 21.9144 6.30581 22.0968 6.4872C22.2791 6.66859 22.5264 6.77049 22.7843 6.77049C23.0421 6.77049 23.2894 6.66859 23.4718 6.4872C23.6541 6.30581 23.7566 6.0598 23.7566 5.80328C23.7566 5.54676 23.6541 5.30074 23.4718 5.11936C23.2894 4.93797 23.0421 4.83607 22.7843 4.83607ZM26.6734 4.83607C26.4155 4.83607 26.1682 4.93797 25.9859 5.11936C25.8035 5.30074 25.7011 5.54676 25.7011 5.80328C25.7011 6.0598 25.8035 6.30581 25.9859 6.4872C26.1682 6.66859 26.4155 6.77049 26.6734 6.77049C26.9313 6.77049 27.1786 6.66859 27.3609 6.4872C27.5432 6.30581 27.6457 6.0598 27.6457 5.80328C27.6457 5.54676 27.5432 5.30074 27.3609 5.11936C27.1786 4.93797 26.9313 4.83607 26.6734 4.83607ZM30.5625 4.83607C30.3046 4.83607 30.0573 4.93797 29.875 5.11936C29.6927 5.30074 29.5902 5.54676 29.5902 5.80328C29.5902 6.0598 29.6927 6.30581 29.875 6.4872C30.0573 6.66859 30.3046 6.77049 30.5625 6.77049C30.8204 6.77049 31.0677 6.66859 31.25 6.4872C31.4323 6.30581 31.5348 6.0598 31.5348 5.80328C31.5348 5.54676 31.4323 5.30074 31.25 5.11936C31.0677 4.93797 30.8204 4.83607 30.5625 4.83607ZM34.4516 4.83607C34.1937 4.83607 33.9464 4.93797 33.7641 5.11936C33.5818 5.30074 33.4793 5.54676 33.4793 5.80328C33.4793 6.0598 33.5818 6.30581 33.7641 6.4872C33.9464 6.66859 34.1937 6.77049 34.4516 6.77049C34.7095 6.77049 34.9568 6.66859 35.1391 6.4872C35.3215 6.30581 35.4239 6.0598 35.4239 5.80328C35.4239 5.54676 35.3215 5.30074 35.1391 5.11936C34.9568 4.93797 34.7095 4.83607 34.4516 4.83607ZM38.3407 4.83607C38.0829 4.83607 37.8356 4.93797 37.6532 5.11936C37.4709 5.30074 37.3684 5.54676 37.3684 5.80328C37.3684 6.0598 37.4709 6.30581 37.6532 6.4872C37.8356 6.66859 38.0829 6.77049 38.3407 6.77049C38.5986 6.77049 38.8459 6.66859 39.0282 6.4872C39.2106 6.30581 39.313 6.0598 39.313 5.80328C39.313 5.54676 39.2106 5.30074 39.0282 5.11936C38.8459 4.93797 38.5986 4.83607 38.3407 4.83607ZM42.2298 4.83607C41.972 4.83607 41.7247 4.93797 41.5423 5.11936C41.36 5.30074 41.2576 5.54676 41.2576 5.80328C41.2576 6.0598 41.36 6.30581 41.5423 6.4872C41.7247 6.66859 41.972 6.77049 42.2298 6.77049C42.4877 6.77049 42.735 6.66859 42.9173 6.4872C43.0997 6.30581 43.2021 6.0598 43.2021 5.80328C43.2021 5.54676 43.0997 5.30074 42.9173 5.11936C42.735 4.93797 42.4877 4.83607 42.2298 4.83607ZM46.119 4.83607C45.8611 4.83607 45.6138 4.93797 45.4314 5.11936C45.2491 5.30074 45.1467 5.54676 45.1467 5.80328C45.1467 6.0598 45.2491 6.30581 45.4314 6.4872C45.6138 6.66859 45.8611 6.77049 46.119 6.77049C46.3768 6.77049 46.6241 6.66859 46.8065 6.4872C46.9888 6.30581 47.0912 6.0598 47.0912 5.80328C47.0912 5.54676 46.9888 5.30074 46.8065 5.11936C46.6241 4.93797 46.3768 4.83607 46.119 4.83607ZM50.0081 4.83607C49.7502 4.83607 49.5029 4.93797 49.3206 5.11936C49.1382 5.30074 49.0358 5.54676 49.0358 5.80328C49.0358 6.0598 49.1382 6.30581 49.3206 6.4872C49.5029 6.66859 49.7502 6.77049 50.0081 6.77049C50.2659 6.77049 50.5132 6.66859 50.6956 6.4872C50.8779 6.30581 50.9803 6.0598 50.9803 5.80328C50.9803 5.54676 50.8779 5.30074 50.6956 5.11936C50.5132 4.93797 50.2659 4.83607 50.0081 4.83607ZM53.8972 4.83607C53.6393 4.83607 53.392 4.93797 53.2097 5.11936C53.0273 5.30074 52.9249 5.54676 52.9249 5.80328C52.9249 6.0598 53.0273 6.30581 53.2097 6.4872C53.392 6.66859 53.6393 6.77049 53.8972 6.77049C54.155 6.77049 54.4023 6.66859 54.5847 6.4872C54.767 6.30581 54.8695 6.0598 54.8695 5.80328C54.8695 5.54676 54.767 5.30074 54.5847 5.11936C54.4023 4.93797 54.155 4.83607 53.8972 4.83607ZM7.22782 8.70492C6.96996 8.70492 6.72266 8.80682 6.54032 8.98821C6.35798 9.16959 6.25554 9.41561 6.25554 9.67213C6.25554 9.92865 6.35798 10.1747 6.54032 10.3561C6.72266 10.5374 6.96996 10.6393 7.22782 10.6393C7.48569 10.6393 7.73299 10.5374 7.91533 10.3561C8.09767 10.1747 8.2001 9.92865 8.2001 9.67213C8.2001 9.41561 8.09767 9.16959 7.91533 8.98821C7.73299 8.80682 7.48569 8.70492 7.22782 8.70492ZM53.8972 8.70492C53.6393 8.70492 53.392 8.80682 53.2097 8.98821C53.0273 9.16959 52.9249 9.41561 52.9249 9.67213C52.9249 9.92865 53.0273 10.1747 53.2097 10.3561C53.392 10.5374 53.6393 10.6393 53.8972 10.6393C54.155 10.6393 54.4023 10.5374 54.5847 10.3561C54.767 10.1747 54.8695 9.92865 54.8695 9.67213C54.8695 9.41561 54.767 9.16959 54.5847 8.98821C54.4023 8.80682 54.155 8.70492 53.8972 8.70492ZM7.22782 12.5738C6.96996 12.5738 6.72266 12.6757 6.54032 12.8571C6.35798 13.0384 6.25554 13.2845 6.25554 13.541C6.25554 13.7975 6.35798 14.0435 6.54032 14.2249C6.72266 14.4063 6.96996 14.5082 7.22782 14.5082C7.48569 14.5082 7.73299 14.4063 7.91533 14.2249C8.09767 14.0435 8.2001 13.7975 8.2001 13.541C8.2001 13.2845 8.09767 13.0384 7.91533 12.8571C7.73299 12.6757 7.48569 12.5738 7.22782 12.5738ZM53.8972 12.5738C53.6393 12.5738 53.392 12.6757 53.2097 12.8571C53.0273 13.0384 52.9249 13.2845 52.9249 13.541C52.9249 13.7975 53.0273 14.0435 53.2097 14.2249C53.392 14.4063 53.6393 14.5082 53.8972 14.5082C54.155 14.5082 54.4023 14.4063 54.5847 14.2249C54.767 14.0435 54.8695 13.7975 54.8695 13.541C54.8695 13.2845 54.767 13.0384 54.5847 12.8571C54.4023 12.6757 54.155 12.5738 53.8972 12.5738ZM7.22782 16.4426C6.96996 16.4426 6.72266 16.5445 6.54032 16.7259C6.35798 16.9073 6.25554 17.1533 6.25554 17.4098C6.25554 17.6664 6.35798 17.9124 6.54032 18.0938C6.72266 18.2751 6.96996 18.377 7.22782 18.377C7.48569 18.377 7.73299 18.2751 7.91533 18.0938C8.09767 17.9124 8.2001 17.6664 8.2001 17.4098C8.2001 17.1533 8.09767 16.9073 7.91533 16.7259C7.73299 16.5445 7.48569 16.4426 7.22782 16.4426ZM22.7843 16.4426L15.9783 21.2787L22.7843 26.1148V22.2459H38.3407V26.1148L45.1467 21.2787L38.3407 16.4426V20.3115H22.7843V16.4426ZM53.8972 16.4426C53.6393 16.4426 53.392 16.5445 53.2097 16.7259C53.0273 16.9073 52.9249 17.1533 52.9249 17.4098C52.9249 17.6664 53.0273 17.9124 53.2097 18.0938C53.392 18.2751 53.6393 18.377 53.8972 18.377C54.155 18.377 54.4023 18.2751 54.5847 18.0938C54.767 17.9124 54.8695 17.6664 54.8695 17.4098C54.8695 17.1533 54.767 16.9073 54.5847 16.7259C54.4023 16.5445 54.155 16.4426 53.8972 16.4426ZM7.22782 20.3115C6.96996 20.3115 6.72266 20.4134 6.54032 20.5948C6.35798 20.7762 6.25554 21.0222 6.25554 21.2787C6.25554 21.5352 6.35798 21.7812 6.54032 21.9626C6.72266 22.144 6.96996 22.2459 7.22782 22.2459C7.48569 22.2459 7.73299 22.144 7.91533 21.9626C8.09767 21.7812 8.2001 21.5352 8.2001 21.2787C8.2001 21.0222 8.09767 20.7762 7.91533 20.5948C7.73299 20.4134 7.48569 20.3115 7.22782 20.3115ZM53.8972 20.3115C53.6393 20.3115 53.392 20.4134 53.2097 20.5948C53.0273 20.7762 52.9249 21.0222 52.9249 21.2787C52.9249 21.5352 53.0273 21.7812 53.2097 21.9626C53.392 22.144 53.6393 22.2459 53.8972 22.2459C54.155 22.2459 54.4023 22.144 54.5847 21.9626C54.767 21.7812 54.8695 21.5352 54.8695 21.2787C54.8695 21.0222 54.767 20.7762 54.5847 20.5948C54.4023 20.4134 54.155 20.3115 53.8972 20.3115ZM7.22782 24.1803C6.96996 24.1803 6.72266 24.2822 6.54032 24.4636C6.35798 24.645 6.25554 24.891 6.25554 25.1475C6.25554 25.4041 6.35798 25.6501 6.54032 25.8315C6.72266 26.0129 6.96996 26.1148 7.22782 26.1148C7.48569 26.1148 7.73299 26.0129 7.91533 25.8315C8.09767 25.6501 8.2001 25.4041 8.2001 25.1475C8.2001 24.891 8.09767 24.645 7.91533 24.4636C7.73299 24.2822 7.48569 24.1803 7.22782 24.1803ZM53.8972 24.1803C53.6393 24.1803 53.392 24.2822 53.2097 24.4636C53.0273 24.645 52.9249 24.891 52.9249 25.1475C52.9249 25.4041 53.0273 25.6501 53.2097 25.8315C53.392 26.0129 53.6393 26.1148 53.8972 26.1148C54.155 26.1148 54.4023 26.0129 54.5847 25.8315C54.767 25.6501 54.8695 25.4041 54.8695 25.1475C54.8695 24.891 54.767 24.645 54.5847 24.4636C54.4023 24.2822 54.155 24.1803 53.8972 24.1803ZM7.22782 28.0492C6.96996 28.0492 6.72266 28.1511 6.54032 28.3325C6.35798 28.5139 6.25554 28.7599 6.25554 29.0164C6.25554 29.2729 6.35798 29.5189 6.54032 29.7003C6.72266 29.8817 6.96996 29.9836 7.22782 29.9836C7.48569 29.9836 7.73299 29.8817 7.91533 29.7003C8.09767 29.5189 8.2001 29.2729 8.2001 29.0164C8.2001 28.7599 8.09767 28.5139 7.91533 28.3325C7.73299 28.1511 7.48569 28.0492 7.22782 28.0492ZM53.8972 28.0492C53.6393 28.0492 53.392 28.1511 53.2097 28.3325C53.0273 28.5139 52.9249 28.7599 52.9249 29.0164C52.9249 29.2729 53.0273 29.5189 53.2097 29.7003C53.392 29.8817 53.6393 29.9836 53.8972 29.9836C54.155 29.9836 54.4023 29.8817 54.5847 29.7003C54.767 29.5189 54.8695 29.2729 54.8695 29.0164C54.8695 28.7599 54.767 28.5139 54.5847 28.3325C54.4023 28.1511 54.155 28.0492 53.8972 28.0492ZM7.22782 31.918C6.96996 31.918 6.72266 32.0199 6.54032 32.2013C6.35798 32.3827 6.25554 32.6287 6.25554 32.8852C6.25554 33.1418 6.35798 33.3878 6.54032 33.5692C6.72266 33.7506 6.96996 33.8525 7.22782 33.8525C7.48569 33.8525 7.73299 33.7506 7.91533 33.5692C8.09767 33.3878 8.2001 33.1418 8.2001 32.8852C8.2001 32.6287 8.09767 32.3827 7.91533 32.2013C7.73299 32.0199 7.48569 31.918 7.22782 31.918ZM53.8972 31.918C53.6393 31.918 53.392 32.0199 53.2097 32.2013C53.0273 32.3827 52.9249 32.6287 52.9249 32.8852C52.9249 33.1418 53.0273 33.3878 53.2097 33.5692C53.392 33.7506 53.6393 33.8525 53.8972 33.8525C54.155 33.8525 54.4023 33.7506 54.5847 33.5692C54.767 33.3878 54.8695 33.1418 54.8695 32.8852C54.8695 32.6287 54.767 32.3827 54.5847 32.2013C54.4023 32.0199 54.155 31.918 53.8972 31.918ZM7.22782 35.7869C6.96996 35.7869 6.72266 35.8888 6.54032 36.0702C6.35798 36.2516 6.25554 36.4976 6.25554 36.7541C6.25554 37.0106 6.35798 37.2566 6.54032 37.438C6.72266 37.6194 6.96996 37.7213 7.22782 37.7213C7.48569 37.7213 7.73299 37.6194 7.91533 37.438C8.09767 37.2566 8.2001 37.0106 8.2001 36.7541C8.2001 36.4976 8.09767 36.2516 7.91533 36.0702C7.73299 35.8888 7.48569 35.7869 7.22782 35.7869ZM11.1169 35.7869C10.8591 35.7869 10.6118 35.8888 10.4294 36.0702C10.2471 36.2516 10.1447 36.4976 10.1447 36.7541C10.1447 37.0106 10.2471 37.2566 10.4294 37.438C10.6118 37.6194 10.8591 37.7213 11.1169 37.7213C11.3748 37.7213 11.6221 37.6194 11.8044 37.438C11.9868 37.2566 12.0892 37.0106 12.0892 36.7541C12.0892 36.4976 11.9868 36.2516 11.8044 36.0702C11.6221 35.8888 11.3748 35.7869 11.1169 35.7869ZM15.006 35.7869C14.7482 35.7869 14.5009 35.8888 14.3185 36.0702C14.1362 36.2516 14.0338 36.4976 14.0338 36.7541C14.0338 37.0106 14.1362 37.2566 14.3185 37.438C14.5009 37.6194 14.7482 37.7213 15.006 37.7213C15.2639 37.7213 15.5112 37.6194 15.6936 37.438C15.8759 37.2566 15.9783 37.0106 15.9783 36.7541C15.9783 36.4976 15.8759 36.2516 15.6936 36.0702C15.5112 35.8888 15.2639 35.7869 15.006 35.7869ZM18.8952 35.7869C18.6373 35.7869 18.39 35.8888 18.2077 36.0702C18.0253 36.2516 17.9229 36.4976 17.9229 36.7541C17.9229 37.0106 18.0253 37.2566 18.2077 37.438C18.39 37.6194 18.6373 37.7213 18.8952 37.7213C19.153 37.7213 19.4003 37.6194 19.5827 37.438C19.765 37.2566 19.8674 37.0106 19.8674 36.7541C19.8674 36.4976 19.765 36.2516 19.5827 36.0702C19.4003 35.8888 19.153 35.7869 18.8952 35.7869ZM22.7843 35.7869C22.5264 35.7869 22.2791 35.8888 22.0968 36.0702C21.9144 36.2516 21.812 36.4976 21.812 36.7541C21.812 37.0106 21.9144 37.2566 22.0968 37.438C22.2791 37.6194 22.5264 37.7213 22.7843 37.7213C23.0421 37.7213 23.2894 37.6194 23.4718 37.438C23.6541 37.2566 23.7566 37.0106 23.7566 36.7541C23.7566 36.4976 23.6541 36.2516 23.4718 36.0702C23.2894 35.8888 23.0421 35.7869 22.7843 35.7869ZM26.6734 35.7869C26.4155 35.7869 26.1682 35.8888 25.9859 36.0702C25.8035 36.2516 25.7011 36.4976 25.7011 36.7541C25.7011 37.0106 25.8035 37.2566 25.9859 37.438C26.1682 37.6194 26.4155 37.7213 26.6734 37.7213C26.9313 37.7213 27.1786 37.6194 27.3609 37.438C27.5432 37.2566 27.6457 37.0106 27.6457 36.7541C27.6457 36.4976 27.5432 36.2516 27.3609 36.0702C27.1786 35.8888 26.9313 35.7869 26.6734 35.7869ZM30.5625 35.7869C30.3046 35.7869 30.0573 35.8888 29.875 36.0702C29.6927 36.2516 29.5902 36.4976 29.5902 36.7541C29.5902 37.0106 29.6927 37.2566 29.875 37.438C30.0573 37.6194 30.3046 37.7213 30.5625 37.7213C30.8204 37.7213 31.0677 37.6194 31.25 37.438C31.4323 37.2566 31.5348 37.0106 31.5348 36.7541C31.5348 36.4976 31.4323 36.2516 31.25 36.0702C31.0677 35.8888 30.8204 35.7869 30.5625 35.7869ZM34.4516 35.7869C34.1937 35.7869 33.9464 35.8888 33.7641 36.0702C33.5818 36.2516 33.4793 36.4976 33.4793 36.7541C33.4793 37.0106 33.5818 37.2566 33.7641 37.438C33.9464 37.6194 34.1937 37.7213 34.4516 37.7213C34.7095 37.7213 34.9568 37.6194 35.1391 37.438C35.3215 37.2566 35.4239 37.0106 35.4239 36.7541C35.4239 36.4976 35.3215 36.2516 35.1391 36.0702C34.9568 35.8888 34.7095 35.7869 34.4516 35.7869ZM38.3407 35.7869C38.0829 35.7869 37.8356 35.8888 37.6532 36.0702C37.4709 36.2516 37.3684 36.4976 37.3684 36.7541C37.3684 37.0106 37.4709 37.2566 37.6532 37.438C37.8356 37.6194 38.0829 37.7213 38.3407 37.7213C38.5986 37.7213 38.8459 37.6194 39.0282 37.438C39.2106 37.2566 39.313 37.0106 39.313 36.7541C39.313 36.4976 39.2106 36.2516 39.0282 36.0702C38.8459 35.8888 38.5986 35.7869 38.3407 35.7869ZM42.2298 35.7869C41.972 35.7869 41.7247 35.8888 41.5423 36.0702C41.36 36.2516 41.2576 36.4976 41.2576 36.7541C41.2576 37.0106 41.36 37.2566 41.5423 37.438C41.7247 37.6194 41.972 37.7213 42.2298 37.7213C42.4877 37.7213 42.735 37.6194 42.9173 37.438C43.0997 37.2566 43.2021 37.0106 43.2021 36.7541C43.2021 36.4976 43.0997 36.2516 42.9173 36.0702C42.735 35.8888 42.4877 35.7869 42.2298 35.7869ZM46.119 35.7869C45.8611 35.7869 45.6138 35.8888 45.4314 36.0702C45.2491 36.2516 45.1467 36.4976 45.1467 36.7541C45.1467 37.0106 45.2491 37.2566 45.4314 37.438C45.6138 37.6194 45.8611 37.7213 46.119 37.7213C46.3768 37.7213 46.6241 37.6194 46.8065 37.438C46.9888 37.2566 47.0912 37.0106 47.0912 36.7541C47.0912 36.4976 46.9888 36.2516 46.8065 36.0702C46.6241 35.8888 46.3768 35.7869 46.119 35.7869ZM50.0081 35.7869C49.7502 35.7869 49.5029 35.8888 49.3206 36.0702C49.1382 36.2516 49.0358 36.4976 49.0358 36.7541C49.0358 37.0106 49.1382 37.2566 49.3206 37.438C49.5029 37.6194 49.7502 37.7213 50.0081 37.7213C50.2659 37.7213 50.5132 37.6194 50.6956 37.438C50.8779 37.2566 50.9803 37.0106 50.9803 36.7541C50.9803 36.4976 50.8779 36.2516 50.6956 36.0702C50.5132 35.8888 50.2659 35.7869 50.0081 35.7869ZM53.8972 35.7869C53.6393 35.7869 53.392 35.8888 53.2097 36.0702C53.0273 36.2516 52.9249 36.4976 52.9249 36.7541C52.9249 37.0106 53.0273 37.2566 53.2097 37.438C53.392 37.6194 53.6393 37.7213 53.8972 37.7213C54.155 37.7213 54.4023 37.6194 54.5847 37.438C54.767 37.2566 54.8695 37.0106 54.8695 36.7541C54.8695 36.4976 54.767 36.2516 54.5847 36.0702C54.4023 35.8888 54.155 35.7869 53.8972 35.7869ZM1.39415 50.2951C1.13629 50.2951 0.888986 50.397 0.706649 50.5784C0.524311 50.7598 0.421875 51.0058 0.421875 51.2623C0.421875 51.5188 0.524311 51.7648 0.706649 51.9462C0.888986 52.1276 1.13629 52.2295 1.39415 52.2295C1.65202 52.2295 1.89932 52.1276 2.08166 51.9462C2.264 51.7648 2.36643 51.5188 2.36643 51.2623C2.36643 51.0058 2.264 50.7598 2.08166 50.5784C1.89932 50.397 1.65202 50.2951 1.39415 50.2951ZM5.28327 50.2951C5.0254 50.2951 4.7781 50.397 4.59576 50.5784C4.41342 50.7598 4.31099 51.0058 4.31099 51.2623C4.31099 51.5188 4.41342 51.7648 4.59576 51.9462C4.7781 52.1276 5.0254 52.2295 5.28327 52.2295C5.54113 52.2295 5.78843 52.1276 5.97077 51.9462C6.15311 51.7648 6.25554 51.5188 6.25554 51.2623C6.25554 51.0058 6.15311 50.7598 5.97077 50.5784C5.78843 50.397 5.54113 50.2951 5.28327 50.2951ZM55.8417 50.2951C55.5839 50.2951 55.3366 50.397 55.1542 50.5784C54.9719 50.7598 54.8695 51.0058 54.8695 51.2623C54.8695 51.5188 54.9719 51.7648 55.1542 51.9462C55.3366 52.1276 55.5839 52.2295 55.8417 52.2295C56.0996 52.2295 56.3469 52.1276 56.5292 51.9462C56.7116 51.7648 56.814 51.5188 56.814 51.2623C56.814 51.0058 56.7116 50.7598 56.5292 50.5784C56.3469 50.397 56.0996 50.2951 55.8417 50.2951ZM59.7308 50.2951C59.473 50.2951 59.2257 50.397 59.0433 50.5784C58.861 50.7598 58.7586 51.0058 58.7586 51.2623C58.7586 51.5188 58.861 51.7648 59.0433 51.9462C59.2257 52.1276 59.473 52.2295 59.7308 52.2295C59.9887 52.2295 60.236 52.1276 60.4184 51.9462C60.6007 51.7648 60.7031 51.5188 60.7031 51.2623C60.7031 51.0058 60.6007 50.7598 60.4184 50.5784C60.236 50.397 59.9887 50.2951 59.7308 50.2951ZM1.39415 54.1639C1.13629 54.1639 0.888986 54.2658 0.706649 54.4472C0.524311 54.6286 0.421875 54.8746 0.421875 55.1311C0.421875 55.3877 0.524311 55.6337 0.706649 55.8151C0.888986 55.9965 1.13629 56.0984 1.39415 56.0984C1.65202 56.0984 1.89932 55.9965 2.08166 55.8151C2.264 55.6337 2.36643 55.3877 2.36643 55.1311C2.36643 54.8746 2.264 54.6286 2.08166 54.4472C1.89932 54.2658 1.65202 54.1639 1.39415 54.1639ZM5.28327 54.1639C5.0254 54.1639 4.7781 54.2658 4.59576 54.4472C4.41342 54.6286 4.31099 54.8746 4.31099 55.1311C4.31099 55.3877 4.41342 55.6337 4.59576 55.8151C4.7781 55.9965 5.0254 56.0984 5.28327 56.0984C5.54113 56.0984 5.78843 55.9965 5.97077 55.8151C6.15311 55.6337 6.25554 55.3877 6.25554 55.1311C6.25554 54.8746 6.15311 54.6286 5.97077 54.4472C5.78843 54.2658 5.54113 54.1639 5.28327 54.1639ZM9.17238 54.1639C9.04354 54.1621 8.91562 54.1858 8.79607 54.2336C8.67651 54.2814 8.56769 54.3523 8.47593 54.4423C8.38418 54.5323 8.31132 54.6396 8.26159 54.7578C8.21186 54.8761 8.18625 55.003 8.18625 55.1311C8.18625 55.2593 8.21186 55.3862 8.26159 55.5045C8.31132 55.6227 8.38418 55.73 8.47593 55.82C8.56769 55.91 8.67651 55.9809 8.79607 56.0287C8.91562 56.0765 9.04354 56.1002 9.17238 56.0984H15.9783C15.9783 57.6894 17.2958 59 18.8952 59H42.2298C43.8292 59 45.1467 57.6894 45.1467 56.0984H51.9526C52.0815 56.1002 52.2094 56.0765 52.3289 56.0287C52.4485 55.9809 52.5573 55.91 52.6491 55.82C52.7408 55.73 52.8137 55.6227 52.8634 55.5045C52.9131 55.3862 52.9387 55.2593 52.9387 55.1311C52.9387 55.003 52.9131 54.8761 52.8634 54.7578C52.8137 54.6396 52.7408 54.5323 52.6491 54.4423C52.5573 54.3523 52.4485 54.2814 52.3289 54.2336C52.2094 54.1858 52.0815 54.1621 51.9526 54.1639H43.2021V56.0984C43.2021 56.6449 42.7792 57.0656 42.2298 57.0656H18.8952C18.3458 57.0656 17.9229 56.6449 17.9229 56.0984V54.1639H9.17238ZM55.8417 54.1639C55.5839 54.1639 55.3366 54.2658 55.1542 54.4472C54.9719 54.6286 54.8695 54.8746 54.8695 55.1311C54.8695 55.3877 54.9719 55.6337 55.1542 55.8151C55.3366 55.9965 55.5839 56.0984 55.8417 56.0984C56.0996 56.0984 56.3469 55.9965 56.5292 55.8151C56.7116 55.6337 56.814 55.3877 56.814 55.1311C56.814 54.8746 56.7116 54.6286 56.5292 54.4472C56.3469 54.2658 56.0996 54.1639 55.8417 54.1639ZM59.7308 54.1639C59.473 54.1639 59.2257 54.2658 59.0433 54.4472C58.861 54.6286 58.7586 54.8746 58.7586 55.1311C58.7586 55.3877 58.861 55.6337 59.0433 55.8151C59.2257 55.9965 59.473 56.0984 59.7308 56.0984C59.9887 56.0984 60.236 55.9965 60.4184 55.8151C60.6007 55.6337 60.7031 55.3877 60.7031 55.1311C60.7031 54.8746 60.6007 54.6286 60.4184 54.4472C60.236 54.2658 59.9887 54.1639 59.7308 54.1639Z" fill="#2853A4"/>
</svg>
