<svg width="43" height="43" viewBox="0 0 43 43" fill="none" xmlns="http://www.w3.org/2000/svg">
<path d="M21.5906 0.700073L21.0774 1.02543L0.492188 13.936V29.4642L21.5906 42.7001L42.6891 29.4642V13.936L21.5906 0.700073ZM21.5906 2.94796L40.771 14.9749V28.4252L21.5906 40.4522L2.41023 28.4252V14.9749L21.5906 2.94796ZM20.6316 5.73194L5.05877 15.4999L12.5586 20.6316L20.6316 15.2041V5.73194ZM22.5496 5.73194V15.2041L22.9692 15.4851L30.6226 20.6316L38.1225 15.4999L22.5496 5.73194ZM18.7136 9.17771V14.2022L12.5698 18.3356L8.52398 15.5664L18.7136 9.17771ZM24.4677 9.17771L34.6573 15.5664L30.6114 18.3319L24.4677 14.2022V9.17771ZM21.5906 16.7902L14.2069 21.7592L21.5906 26.8096L22.1376 26.4362L28.9743 21.7592L21.5906 16.7902ZM4.32827 17.245V26.17L10.9065 21.7444L9.75647 20.9606L4.32827 17.245ZM38.853 17.2487L32.2747 21.7444L33.4285 22.5245L38.853 26.17V17.2487ZM21.5906 19.0825L25.5878 21.774L21.5906 24.5062L17.5935 21.774L21.5906 19.0825ZM6.24631 20.8608L7.52 21.7333L6.24631 22.5874V20.8608ZM36.9349 20.8608V22.5874L35.6612 21.7333L36.9349 20.8608ZM12.5511 22.8721L12.0042 23.2381L5.07001 27.9076L20.6316 37.6682V28.3994L12.5511 22.8721ZM30.6301 22.8721L22.5496 28.3994V37.6682L38.1112 27.9076L30.6301 22.8721ZM12.5399 25.1717L18.7136 29.3902V34.2224L8.55395 27.8522L12.5399 25.1717ZM30.6414 25.1717L34.6273 27.8522L24.4677 34.2224V29.3902L30.6414 25.1717Z" fill="#2853A4"/>
</svg>
